<svg id="Layer_1" data-name="Layer 1" xmlns="http://www.w3.org/2000/svg" viewBox="0 0 249 114"><path d="M56.05,96.28c-22.41,0-41.85-18.12-41.79-39,.06-22.7,19.13-41.79,41.65-41.69,24.82.11,43.45,17.52,43.38,40.55C99.22,78.78,80.41,96.25,56.05,96.28Zm.85-19.11c12.38,0,22.43-9.54,22.39-21.32-.05-11.94-9.88-21.5-22.2-21.57s-22.82,9.66-22.81,21C34.29,67.29,44.49,77.14,56.9,77.17Z" style="fill:#030303"/><path d="M237.74,96.57c-7.28,0-13.56-.06-19.83,0-2.51,0-3.34-1.65-4.37-3.41q-10.09-17.44-20.29-34.82c-.83-1.41-1.7-2.8-2.91-4.8-7.72,13.23-15.27,25.87-22.46,38.71-2,3.66-4.35,5.24-8.6,4.91-5.06-.39-10.16-.09-16.23-.09l47.41-81.92Z" style="fill:#030303"/><path d="M147.06,77.5c-3.57,6.1-6.81,11.45-9.84,16.92-.92,1.67-2.13,1.77-3.68,1.77-9,0-18-.08-27,0-2.14,0-2.85-.55-2.84-2.77q.11-37.64,0-75.25c0-2.5.84-3.07,3.14-3,5,.22,11.32-1.6,14.56.81,3.09,2.31.86,9,.9,13.78.13,14.45.16,28.9,0,43.35,0,3.48.88,4.58,4.4,4.42C133.18,77.3,139.67,77.5,147.06,77.5Z" style="fill:#030303"/></svg>